<svg xmlns="http://www.w3.org/2000/svg" viewBox="22.7 22.65 146.7 146.7"><path fill="#5b5b5b" d="M62.7 36a13.3,13.3 0 1,1 26.7,0a13.3,13.3 0 1,1 -26.7,0M102.7 36a13.3,13.3 0 1,1 26.7,0a13.3,13.3 0 1,1 -26.7,0M102.7 156a13.3,13.3 0 1,1 26.7,0a13.3,13.3 0 1,1 -26.7,0M62.7 156a13.3,13.3 0 1,1 26.7,0a13.3,13.3 0 1,1 -26.7,0M22.7 76a13.3,13.3 0 1,1 26.7,0a13.3,13.3 0 1,1 -26.7,0M142.7 76a13.3,13.3 0 1,1 26.7,0a13.3,13.3 0 1,1 -26.7,0M142.7 116a13.3,13.3 0 1,1 26.7,0a13.3,13.3 0 1,1 -26.7,0M22.7 116a13.3,13.3 0 1,1 26.7,0a13.3,13.3 0 1,1 -26.7,0"/><path fill="#84a1d6" d="M22.7 36a13.3,13.3 0 1,1 26.7,0a13.3,13.3 0 1,1 -26.7,0M142.7 36a13.3,13.3 0 1,1 26.7,0a13.3,13.3 0 1,1 -26.7,0M142.7 156a13.3,13.3 0 1,1 26.7,0a13.3,13.3 0 1,1 -26.7,0M22.7 156a13.3,13.3 0 1,1 26.7,0a13.3,13.3 0 1,1 -26.7,0M56 56L96 56L96 84L72 72L84 96L56 96ZM136 56L136 96L108 96L120 72L96 84L96 56ZM136 136L96 136L96 108L120 120L108 96L136 96ZM56 136L56 96L84 96L72 120L96 108L96 136Z"/></svg>